{
  "accessors": [
    {
      "name": "AIBRbyAIAR_green-0_1_0_positions",
      "componentType": 5126,
      "count": 40239,
      "min": [
        19426.59765625,
        6061.505859375,
        8280
      ],
      "max": [
        25838.947265625,
        22396.443359375,
        19319.646484375
      ],
      "type": "VEC3",
      "bufferView": 0,
      "byteOffset": 0
    },
    {
      "name": "AIBRbyAIAR_green-0_1_0_indices",
      "componentType": 5123,
      "count": 216546,
      "min": [
        0
      ],
      "max": [
        40238
      ],
      "type": "SCALAR",
      "bufferView": 1,
      "byteOffset": 0
    }
  ],
  "asset": {
    "generator": "obj2gltf",
    "version": "2.0"
  },
  "buffers": [
    {
      "name": "SketchVolumeViewer_AIBRbyAIAR_AIBRbyAIAR_1_1_0000_green-0",
      "byteLength": 915960,
      "uri": "data:application/octet-stream;base64,"
    }
  ],
  "bufferViews": [
    {
      "name": "bufferView_0",
      "buffer": 0,
      "byteLength": 482868,
      "byteOffset": 0,
      "byteStride": 12,
      "target": 34962
    },
    {
      "name": "bufferView_1",
      "buffer": 0,
      "byteLength": 433092,
      "byteOffset": 482868,
      "target": 34963
    }
  ],
  "materials": [
    {
      "name": "mat_GREEN",
      "pbrMetallicRoughness": {
        "baseColorFactor": [
          0,
          0.99609375,
          0,
          0.98
        ],
        "metallicFactor": 0,
        "roughnessFactor": 0.903921569
      },
      "emissiveFactor": [
        0,
        0,
        0
      ],
      "alphaMode": "BLEND",
      "doubleSided": true
    }
  ],
  "meshes": [
    {
      "name": "AIBRbyAIAR_green-0_1",
      "primitives": [
        {
          "attributes": {
            "POSITION": 0
          },
          "indices": 1,
          "material": 0,
          "mode": 4
        }
      ]
    }
  ],
  "nodes": [
    {
      "name": "AIBRbyAIAR_green-0",
      "mesh": 0
    }
  ],
  "scene": 0,
  "scenes": [
    {
      "nodes": [
        0
      ]
    }
  ]
}
